Coordinates
version=1
nRows=27
nColumns=38
inDegrees=no

Units are S.I. units (second, meters, Newtons, ...)
If the header above contains a line with 'inDegrees', this indicates whether rotational values are in degrees (yes) or radians (no).

endheader
time	pelvis_tilt	pelvis_list	pelvis_rotation	pelvis_tx	pelvis_ty	pelvis_tz	hip_flexion_r	hip_adduction_r	hip_rotation_r	knee_angle_r	ankle_angle_r	subtalar_angle_r	mtp_angle_r	hip_flexion_l	hip_adduction_l	hip_rotation_l	knee_angle_l	ankle_angle_l	subtalar_angle_l	mtp_angle_l	lumbar_extension	lumbar_bending	lumbar_rotation	arm_flex_r	arm_add_r	arm_rot_r	elbow_flex_r	pro_sup_r	wrist_flex_r	wrist_dev_r	arm_flex_l	arm_add_l	arm_rot_l	elbow_flex_l	pro_sup_l	wrist_flex_l	wrist_dev_l
2.21	-2.80545	1.39682	-1.90125	0.793094	0.895383	0.95903	0.293037	-0.210411	-0.0172817	1.28714	-0.129687	0	0	-0.054728	0.131262	-0.342198	0.170518	0.0444641	0	0	-0.272074	-0.0107668	0.0784713	0.105656	-0.285661	0.913848	0.348438	0.748801	0	0	0.138774	-0.182245	0.120568	0.263774	1.5708	0	0
2.22	-2.82251	1.39742	-1.87885	0.791665	0.902062	0.96	0.308472	-0.207959	-0.0269179	1.27191	-0.106945	0	0	-0.0663787	0.129812	-0.338728	0.164548	0.0462064	0	0	-0.274498	-0.00724715	0.0738986	0.112123	-0.286631	0.921325	0.349457	0.740619	0	0	0.145375	-0.183096	0.123779	0.262415	1.5708	0	0
2.23	-2.8371	1.3988	-1.86044	0.790445	0.90871	0.960821	0.323927	-0.204445	-0.0320152	1.25352	-0.0861212	0	0	-0.0770098	0.128251	-0.335809	0.158583	0.0479168	0	0	-0.2758	-0.004278	0.0709265	0.118055	-0.288031	0.927278	0.351181	0.732281	0	0	0.151804	-0.18409	0.127955	0.261514	1.5708	0	0
2.24	-2.85416	1.39982	-1.84075	0.789415	0.915361	0.961608	0.337722	-0.20053	-0.0374809	1.23133	-0.0673043	0	0	-0.0879229	0.126139	-0.332447	0.152889	0.0501408	0	0	-0.277554	-0.00163751	0.0703837	0.121402	-0.285558	0.904619	0.346627	0.769753	0	0	0.154604	-0.188934	0.154761	0.27183	1.5708	0	0
2.25	-2.93301	1.39961	-1.76288	0.788138	0.920635	0.963549	0.345855	-0.193906	-0.059203	1.19853	-0.0594192	0	0	-0.0987799	0.113512	-0.333504	0.151104	0.0533226	0	0	-0.287277	0.0129918	0.073785	0.131511	-0.29269	0.913567	0.350881	0.759094	0	0	0.166073	-0.183568	0.149915	0.266349	1.5708	0	0
2.26	-2.89786	1.40139	-1.79165	0.787386	0.928431	0.963093	0.359604	-0.193364	-0.0584118	1.17472	-0.0375785	0	0	-0.107323	0.119646	-0.328126	0.14636	0.0576765	0	0	-0.281634	0.00627379	0.0671392	0.132738	-0.292769	0.927015	0.35609	0.736981	0	0	0.16922	-0.187681	0.148132	0.26507	1.5708	0	0
2.27	-2.91684	1.4022	-1.76963	0.786378	0.934952	0.96374	0.368344	-0.190818	-0.0709304	1.14159	-0.0252054	0	0	-0.116397	0.116733	-0.325382	0.143646	0.0600431	0	0	-0.283281	0.00999645	0.0653829	0.137866	-0.295658	0.934512	0.359845	0.726438	0	0	0.174269	-0.188176	0.151172	0.267941	1.5708	0	0
2.28	-2.93691	1.40339	-1.74716	0.785444	0.941461	0.964316	0.375664	-0.187458	-0.0834956	1.10538	-0.0149746	0	0	-0.12513	0.113593	-0.322535	0.140642	0.0621618	0	0	-0.284406	0.0140057	0.0643384	0.142908	-0.297836	0.938561	0.362254	0.719319	0	0	0.179134	-0.188226	0.153947	0.270832	1.5708	0	0
2.29	-2.95917	1.40387	-1.7227	0.784571	0.947975	0.964914	0.380273	-0.183705	-0.0973771	1.06643	-0.00501923	0	0	-0.134753	0.110281	-0.319027	0.137445	0.0636114	0	0	-0.286262	0.0182314	0.0636337	0.148047	-0.29984	0.940995	0.364399	0.713824	0	0	0.184281	-0.187938	0.156817	0.27303	1.5708	0	0
2.3	-2.98184	1.40404	-1.69824	0.78377	0.954508	0.965526	0.382975	-0.179642	-0.112091	1.02502	0.00445532	0	0	-0.144658	0.106952	-0.315625	0.134477	0.0641815	0	0	-0.288402	0.0224494	0.063502	0.153239	-0.301748	0.943747	0.36607	0.709065	0	0	0.18992	-0.187129	0.159902	0.273614	1.5708	0	0
2.31	-3.00707	1.4036	-1.6715	0.783005	0.961037	0.966154	0.383129	-0.174956	-0.128227	0.980689	0.0128687	0	0	-0.155417	0.103377	-0.312231	0.131084	0.0645102	0	0	-0.291337	0.0271605	0.0639705	0.158512	-0.303555	0.947506	0.367052	0.704523	0	0	0.196756	-0.18549	0.162904	0.271348	1.5708	0	0
2.32	-3.0332	1.40312	-1.64421	0.782312	0.967555	0.966675	0.381288	-0.169633	-0.14585	0.93315	0.0201003	0	0	-0.166686	0.0999757	-0.308522	0.126101	0.0652582	0	0	-0.294402	0.0320499	0.0649668	0.163855	-0.305214	0.951537	0.367674	0.697961	0	0	0.204468	-0.183175	0.165187	0.267102	1.5708	0	0
2.33	-3.05599	1.40234	-1.61995	0.781682	0.974072	0.967074	0.377722	-0.164788	-0.165477	0.883654	0.0257875	0	0	-0.178684	0.0972221	-0.304344	0.120052	0.0669137	0	0	-0.297946	0.0360104	0.0664897	0.166917	-0.301247	0.923613	0.359616	0.741794	0	0	0.209533	-0.18404	0.186323	0.272325	1.5708	0	0
2.34	-3.07825	1.40127	-1.596	0.781052	0.980605	0.967365	0.372528	-0.159733	-0.186522	0.832464	0.0302329	0	0	-0.19122	0.0943919	-0.300521	0.113828	0.0705268	0	0	-0.301695	0.0405777	0.0660367	0.173864	-0.303823	0.943481	0.360845	0.715433	0	0	0.219537	-0.178759	0.172374	0.261924	1.5708	0	0
2.35	-3.09771	1.40051	-1.57489	0.780527	0.987153	0.967486	0.366596	-0.154343	-0.207757	0.779701	0.0333393	0	0	-0.203534	0.0918342	-0.296709	0.107317	0.0738506	0	0	-0.305143	0.0444724	0.0657892	0.179975	-0.305161	0.95458	0.360791	0.701632	0	0	0.227559	-0.175805	0.170313	0.256894	1.5708	0	0
2.36	-3.11421	1.40055	-1.55656	0.780092	0.993664	0.967414	0.360521	-0.148544	-0.229416	0.725443	0.0343374	0	0	-0.21502	0.0895023	-0.291882	0.10055	0.0767558	0	0	-0.307893	0.0478282	0.0652424	0.185835	-0.306008	0.962604	0.360521	0.692122	0	0	0.23543	-0.173579	0.169816	0.25066	1.5708	0	0
2.37	-3.12763	1.4017	-1.54156	0.779812	1.0002	0.967086	0.355108	-0.142208	-0.250114	0.670491	0.0344927	0	0	-0.225235	0.0874687	-0.288236	0.0937153	0.0795696	0	0	-0.309512	0.0503532	0.0647195	0.19144	-0.306404	0.968948	0.360068	0.684592	0	0	0.242377	-0.172223	0.17051	0.246669	1.5708	0	0
2.38	-3.13747	1.40221	-1.53061	0.779687	1.00691	0.966682	0.348216	-0.135304	-0.269767	0.615275	0.0361658	0	0	-0.237046	0.0862388	-0.28444	0.0854853	0.0820657	0	0	-0.311642	0.0518273	0.0646223	0.196065	-0.305189	0.966484	0.357476	0.689347	0	0	0.248415	-0.172137	0.176904	0.245332	1.5708	0	0
2.39	-3.13992	1.40439	-1.52763	0.77972	1.01366	0.965981	0.343364	-0.12859	-0.287184	0.560914	0.0392861	0	0	-0.246483	0.0862508	-0.2817	0.0784989	0.0837697	0	0	-0.312087	0.0515532	0.0645895	0.20048	-0.303801	0.964443	0.355002	0.694045	0	0	0.253992	-0.172669	0.183267	0.244989	1.5708	0	0
2.4	-3.13688	1.40815	-1.53093	0.779928	1.02042	0.965026	0.340274	-0.121393	-0.300476	0.506715	0.0428363	0	0	-0.253815	0.087211	-0.279877	0.0724614	0.0860209	0	0	-0.311041	0.0499686	0.0650249	0.204602	-0.302338	0.961125	0.352812	0.700486	0	0	0.259432	-0.17378	0.190933	0.245268	1.5708	0	0
2.41	-3.13228	1.41243	-1.53649	0.780309	1.02727	0.963963	0.336989	-0.112859	-0.309822	0.451737	0.0461432	0	0	-0.260224	0.0881007	-0.279794	0.0677798	0.0919999	0	0	-0.309341	0.0478864	0.0660417	0.208199	-0.300782	0.95654	0.350596	0.708555	0	0	0.264379	-0.175652	0.201189	0.245779	1.5708	0	0
2.42	-3.1269	1.41714	-1.54313	0.780777	1.0342	0.962791	0.333375	-0.103231	-0.315505	0.39643	0.0496259	0	0	-0.265989	0.0889264	-0.279575	0.06378	0.098357	0	0	-0.307153	0.0456639	0.0673434	0.211482	-0.299435	0.951009	0.34864	0.718598	0	0	0.268345	-0.178504	0.215255	0.248069	1.5708	0	0
2.43	-3.13204	1.42035	-1.53969	0.78136	1.0412	0.961725	0.324876	-0.0889509	-0.312873	0.335735	0.0483471	0	0	-0.274049	0.0880677	-0.278828	0.0585089	0.103735	0	0	-0.306441	0.0457422	0.0683319	0.218592	-0.305875	0.996234	0.35808	0.652581	0	0	0.276266	-0.176515	0.202488	0.237048	1.5708	0	0
2.44	-3.13292	1.42527	-1.5405	0.781986	1.04827	0.960413	0.31747	-0.0751752	-0.304412	0.27595	0.0475275	0	0	-0.279423	0.0876409	-0.278595	0.0551756	0.11022	0	0	-0.304047	0.0448248	0.0703943	0.222036	-0.306265	0.998841	0.358443	0.650374	0	0	0.280586	-0.177682	0.207473	0.237196	1.5708	0	0
2.45	-3.13445	1.43014	-1.54016	0.782528	1.05548	0.959058	0.307419	-0.0611362	-0.290034	0.214104	0.0449815	0	0	-0.284546	0.0869952	-0.278795	0.0525417	0.116841	0	0	-0.301405	0.0444261	0.0721264	0.225046	-0.306881	1.00089	0.358936	0.64812	0	0	0.284322	-0.178508	0.211635	0.237273	1.5708	0	0
2.46	-3.13596	1.43485	-1.53904	0.783005	1.06289	0.957668	0.295056	-0.0476333	-0.271256	0.152219	0.0377831	0	0	-0.289743	0.0861188	-0.278231	0.0504405	0.123186	0	0	-0.298492	0.0443348	0.0731645	0.227618	-0.307457	1.00304	0.359201	0.6464	0	0	0.287776	-0.179171	0.215519	0.236416	1.5708	0	0
2.47	-3.13325	1.43909	-1.54136	0.783423	1.0706	0.956272	0.281598	-0.0364141	-0.250869	0.0947034	0.0288921	0	0	-0.295868	0.0857512	-0.277333	0.0480845	0.128797	0	0	-0.295414	0.0439055	0.0734929	0.229326	-0.307723	1.00517	0.359159	0.645912	0	0	0.29075	-0.17972	0.219462	0.23498	1.5708	0	0
